# Blender v2.81 (sub 16) OBJ File: ''
# www.blender.org
o Cube
v 0.691760 0.682766 -0.682205
v 0.707095 -0.639222 -0.496095
v 0.760608 0.628474 0.759353
v 0.579728 -0.684439 0.549516
v -0.772651 0.595240 -0.748523
v -0.770724 -0.555475 -0.613995
v -0.744708 0.544336 0.645027
v -0.686416 -0.663674 0.652248
vn 0.5741 0.5693 -0.5884
vn -0.5841 0.5250 -0.6190
vn -0.6034 0.5263 0.5991
vn 0.5770 0.5318 0.6198
vn 0.5287 -0.6655 0.5268
vn -0.5495 -0.6140 0.5666
vn -0.5925 -0.5735 -0.5657
vn 0.5974 -0.6128 -0.5172
s 1
f 1//1 5//2 7//3 3//4
f 4//5 3//4 7//3 8//6
f 8//6 7//3 5//2 6//7
f 6//7 2//8 4//5 8//6
f 2//8 1//1 3//4 4//5
f 6//7 5//2 1//1 2//8
